<svg width="377" height="312" viewBox="0 0 377 312" fill="none" xmlns="http://www.w3.org/2000/svg">
<path d="M9.84597 142.282C10.7103 141.845 11.566 141.435 12.4216 141.042C27.072 134.241 41.9231 127.893 56.7656 121.537C57.5776 121.537 58.9134 120.621 59.673 120.297C60.8167 119.809 61.9605 119.328 63.1043 118.831C65.3044 117.888 67.5046 116.954 69.7048 116.011C74.1051 114.125 78.5055 112.239 82.9146 110.362C91.7153 106.599 100.516 102.836 109.317 99.064C126.918 91.538 144.52 84.0032 162.121 76.4772C179.722 68.9512 197.333 61.4165 214.934 53.8817C232.535 46.3557 250.137 38.8297 267.738 31.295C285.348 23.7602 302.95 16.2343 320.551 8.70828C324.463 7.03195 328.697 4.5087 332.888 3.78403C336.407 3.15543 339.846 1.93304 343.383 1.26077C350.114 -0.013916 357.527 -0.546448 363.961 2.24744C366.196 3.20782 368.231 4.57855 369.959 6.28979C378.123 14.3833 376.979 27.6455 375.25 39.0218C363.202 118.272 351.162 197.531 339.122 276.79C337.472 287.668 335.237 299.586 326.646 306.457C319.39 312.272 309.044 312.935 300.077 310.456C291.128 307.976 283.201 302.764 275.456 297.63C243.257 276.309 211.066 254.997 178.876 233.676C171.219 228.613 162.697 222.003 162.793 212.827C162.837 207.292 166.137 202.376 169.507 197.985C197.472 161.498 237.853 136.415 267.878 101.613C272.104 96.7154 275.448 87.8361 269.624 85.0161C266.175 83.331 262.185 85.6185 259.034 87.8099C219.352 115.373 179.67 142.945 139.988 170.517C127.04 179.51 113.455 188.765 97.8531 190.983C83.8925 192.956 69.8445 189.071 56.3204 185.098C44.9964 181.772 33.6899 178.349 22.4271 174.839C16.4465 172.971 10.265 170.971 5.62889 166.754C1.00153 162.537 -1.64392 155.457 1.1325 149.834C2.87867 146.315 6.28378 144.089 9.84597 142.282Z" fill="url(#paint0_linear_5_162)"/>
<defs>
<linearGradient id="paint0_linear_5_162" x1="0" y1="156.021" x2="376.489" y2="156.021" gradientUnits="userSpaceOnUse">
<stop stop-color="#078EF7"/>
<stop offset="0.326923" stop-color="#BB61F9"/>
<stop offset="0.620192" stop-color="#DF4C9D"/>
<stop offset="0.822115" stop-color="#F2445B"/>
<stop offset="0.9999" stop-color="#F45409"/>
</linearGradient>
</defs>
</svg>
